<svg fill="white" xmlns="http://www.w3.org/2000/svg" aria-hidden="true" role="img" viewBox="0 -100 680 855.837" style="background: rgb(17, 23, 41);"><path d="M319.256,426.775c-4.616-7.735-9.4-15.685-24.019-30.429-10.342-10.428-18.889-19.4-26.24-27.266-78.338,25.856-79.278,39.617-79.107,41.113.214,2.051,4.53,5.043,8.718,7.65,20.472,12.821,35.3,15.428,49.619,17.95,11.325,2.008,22.009,3.846,34.1,10.342,17.651,9.445,25.087,21.924,31.626,32.951,7.137,12.052,13.334,22.437,31.583,30.471,15.77,6.967,30.471,7.308,39.232,7.522a128.111,128.111,0,0,0,54.619-11.026c-51.5-8.676-84.62-39.4-97.142-51.028C328.53,442.289,324,434.767,319.256,426.775Z" transform="translate(-189.88 -122.163)"/><path d="M559.44,328.778a115.121,115.121,0,0,0-11.283-36.284c-6.025,5.385-12.137,8.334-19.744,12.009-5.727,2.736-12.864,6.2-22.01,11.668a267.273,267.273,0,0,0-60.473,49.96,394.436,394.436,0,0,0,80.731,33.378l.042.042c5.641,1.453,10.685,2.607,15.129,3.633.428.086.9.214,1.325.3a113.014,113.014,0,0,0,17.181-54.4A111.718,111.718,0,0,0,559.44,328.778Z" transform="translate(-189.88 -122.163)"/><path d="M611.238,310.23c-9.658,12.266-13.163,22.267-17.223,33.806a198.079,198.079,0,0,1-12.1,28.848,169.45,169.45,0,0,1-24.232,34.446c7.18,2.478,12.351,5.9,15.514,12.394,3.76,7.607,3.333,17.351-.941,28.078a289.563,289.563,0,0,0,28.677-18.719,173.659,173.659,0,0,0,25.429-22.351c5.812-6.027,10.855-11.283,21.8-18.121,19.745-12.437,39.19-17.779,53.379-21.668,8.2-2.265,19.445-5.385,19.7-7.949.171-1.753-3.163-5-5.428-7.18-38.976-37.908-65.3-63.551-79.149-62.995a13.359,13.359,0,0,0-1.881.256C626.666,291.084,621.965,296.683,611.238,310.23Z" transform="translate(-189.88 -122.163)"/><path d="M499.822,305.144c9.658-5.769,17.094-9.316,23.035-12.18,9.958-4.786,15.428-7.436,22.1-15.6,21.668-26.54,17.138-64.875,15.429-79.32-2.266-18.89-3.462-27.352-8.548-30.3-4.958-2.864-12.095-.513-23.292,3.547-3.974,1.453-8.291,2.992-12.864,4.316,10.9,5.77,18.42,14.446,20.728,24.66a32.016,32.016,0,0,1,.726,5.513l.812-.128A79.855,79.855,0,0,1,536.319,243c-6.753,22.523-22.309,35.131-40.344,49.661-2.991,2.436-6.111,4.915-9.231,7.565a446.528,446.528,0,0,0-56.5,56.5c1.368.941,2.863,1.881,4.4,2.821A280.181,280.181,0,0,1,499.822,305.144Z" transform="translate(-189.88 -122.163)"/><path d="M472.854,159.068c1.41,2.522,4.53,4.317,9.872,5.684,15.386,3.932,29.233-1.111,41.413-5.513,12.223-4.445,23.762-8.59,34.1-2.607,10.856,6.325,12.352,18.975,14.83,39.917,1.838,15.343,6.539,55.345-15.813,85.731a120.193,120.193,0,0,1,6.326,13.035,55.407,55.407,0,0,1,9.872-18.676c5.043-6.24,10.3-9.787,14.916-12.95,4.786-3.205,8.932-6.026,12.521-11.411,6.069-9.231,7.693-21.668,4.872-37.01l12.608-2.308c3.462,18.719,1.154,34.318-6.795,46.37-5,7.522-10.6,11.325-15.984,15-4.274,2.906-8.334,5.641-12.18,10.385-8.077,9.958-11.539,24.446-10.3,43.036l-.812.043a126.238,126.238,0,0,1,.812,21.925,124.691,124.691,0,0,1-1.71,15.513A185.979,185.979,0,0,0,581.92,339.8c4.231-12.137,8.291-23.59,19.274-37.523,9.787-12.351,16.54-20.9,27.31-24.659l-1.411-1.283c13.805-15.086,30.387-39.831,31.242-71.884.256-11.24.64-26.582-8.933-39.1-5.769-7.522-11.026-9.232-32.438-15.386-6.154-1.752-13.419-3.846-22.137-6.5-17.181-5.3-29.19-9.616-38.891-13.035-18.762-6.71-25.814-9.231-39.789-7.949-7.821.726-28.463,2.692-38.506,17.052a32.146,32.146,0,0,0-2.436,4.1,32.2,32.2,0,0,1-2.65,14.7A2.181,2.181,0,0,0,472.854,159.068Z" transform="translate(-189.88 -122.163)"/><path d="M448.708,194.156c-12.608,10.6-18.078,19.7-16.2,27.18,2.949,11.5,22.48,14.959,22.651,15a42.084,42.084,0,0,0,10.086.384c8.163-.684,15.727-3.547,20.172-6.966,2.393-1.795,3.846-3.761,3.975-5.3.341-3.29-4.317-8.718-9.659-9.958-6.2-1.41-14.915,2.992-18.078,12.608l-12.18-4.017c4.915-14.958,19.445-24.232,33.122-21.07,11.41,2.607,20.556,13.719,19.573,23.677a16.1,16.1,0,0,1-2.35,6.923c10.427-2.906,17.265-7.052,21.155-13.676a25.676,25.676,0,0,0,3.333-11.069,16.729,16.729,0,0,0-.385-4.786c-2.521-11.112-16.2-20-34.018-22.1l.256-2.136a1.054,1.054,0,0,1-.342-.043l-.043,2.222C480.59,180.822,463.024,182.189,448.708,194.156Z" transform="translate(-189.88 -122.163)"/><path d="M433.322,241.466c-5.9-3.718-11.24-9.146-13.206-17.01-4.829-19.018,14.146-34.916,20.343-40.13A67.677,67.677,0,0,1,466.4,171.035a16.27,16.27,0,0,1-2.265-2.265h-.043c-5.3,3.376-10.984,3.418-17.437,3.418-1.666,0-3.5,0-5.513.086-9.445.3-31.583.983-42.951,10.257-6.368,5.171-7.436,11.71-8.718,19.274-1.325,7.907-2.821,16.839-11.24,22.822a83.926,83.926,0,0,0,32.01,15.429C417.552,241.808,424.091,242.064,433.322,241.466Z" transform="translate(-189.88 -122.163)"/><path d="M379.131,292.409c-3.675-15.044-15.342-22.48-18.8-24.4l6.2-11.24c.256.171.6.342.94.555a116.413,116.413,0,0,1-13.035-11.71l9.188-8.889,4.83-3.376c-1.624-1.282-3.2-2.65-4.744-4.017-6.282.128-12.351-1.667-17.693-3.249-4.488-1.325-10-2.948-11.625-1.752-1.025.812-9.274,9.873,23.121,79.834,2.094.9,4.231,1.88,6.453,2.906,5.342,2.521,9.915,4.915,13.933,7.308A38.24,38.24,0,0,0,379.131,292.409Z" transform="translate(-189.88 -122.163)"/><path d="M340.582,297.879C313.23,236,318.016,220.738,326.607,214.157c6.795-5.172,15.043-2.736,23.035-.385,6.154,1.838,12.01,3.547,17.1,2.265a10.979,10.979,0,0,0,3.5-1.5c4.359-2.778,5.3-7.222,6.582-14.829,1.41-8.42,3.162-18.89,13.248-27.139,14.744-11.966,39.916-12.778,50.644-13.12,2.137-.085,4.1-.085,5.9-.085,6.838,0,9.232-.172,11.326-2.009a9.1,9.1,0,0,0,1.2-1.325,32.527,32.527,0,0,1,2.906-14.445,13.878,13.878,0,0,0-1.239-3.548c-5.514-10.9-34.105-8.59-47.866-7.478-13.42,1.068-38.379,3.076-64.278,20.171C339,157.1,335.71,161.291,330.282,168.257c-5.427,6.923-12.864,16.454-29.788,32.267-7.735,7.265-14.06,12.649-19.146,16.966-10.941,9.317-15.471,13.163-17.822,21.112-3.718,12.608.129,27.78,11.454,45.174,6.2.812,13.377,2.051,21.711,3.761C315.41,291.426,328.444,294.118,340.582,297.879Z" transform="translate(-189.88 -122.163)"/><path d="M531.447,478.829a101.047,101.047,0,0,0,19.1-19.1c10.513-13.846,14.787-26.967,11.154-34.36-2.393-4.873-8.333-6.411-22.736-9.7-4.573-1.025-9.744-2.222-15.557-3.718a413.472,413.472,0,0,1-87.1-36.455c-21.583-12.18-31.412-21.8-40.045-30.3-9.189-9.017-17.1-16.8-37.78-26.539-4.786-2.266-9.317-4.146-13.8-5.77-14.061-5.214-28.079-8.12-50.558-12.778a225.121,225.121,0,0,0-29.19-4.445c-13.377-.855-18.42,1.453-21.454,4.316a27.337,27.337,0,0,1-8.035,4.958,216.457,216.457,0,0,0,38.891,14.146,242.212,242.212,0,0,0,26.5,5.171c9.915,1.5,19.318,2.949,31.2,7.479a135.2,135.2,0,0,1,45.3,29.147l-8.847,9.274A122.991,122.991,0,0,0,327.5,343.694c-10.641-4.018-18.975-5.3-28.591-6.753a255.749,255.749,0,0,1-27.779-5.47,227.5,227.5,0,0,1-26.626-8.633c4.1,4.4,8.206,9.017,12.651,14.018,11.154,12.522,25.044,28.164,47.182,50.473,15.727,15.812,21.155,24.873,25.9,32.864,4.487,7.48,8.333,13.976,20.727,25.429,11.924,11.07,43.635,40.515,92.441,48.122,4.317.684,10.214,1.582,17.309,2.18a142.084,142.084,0,0,0,24.916-.128,100.087,100.087,0,0,0,25.428-5.812A82.58,82.58,0,0,0,531.447,478.829Z" transform="translate(-189.88 -122.163)"/><path d="M478.538,290.357c3.206-2.649,6.325-5.171,9.36-7.65,17.052-13.761,30.557-24.659,36.113-43.378a49.947,49.947,0,0,0,1.325-5.556c-12.052,11.026-31.968,14.488-59.32,17.394-4.53.513-9.274.984-14.188,1.5-10.557,1.068-18.8,1.923-26.37,1.923a77.4,77.4,0,0,1-18.163-2.051,98.6,98.6,0,0,1-38.848-19.189l-4.83,3.376a110.068,110.068,0,0,0,45.6,28.335c29.231,9.231,55,3.5,67.738-.726l4.017,12.18a126.3,126.3,0,0,1-39.4,6.325,120.326,120.326,0,0,1-36.2-5.556,123.06,123.06,0,0,1-30.429-14.574,50.43,50.43,0,0,1,13.889,58.807A149.08,149.08,0,0,1,405.244,336a167.179,167.179,0,0,0,14.616,13.206A462.792,462.792,0,0,1,478.538,290.357Z" transform="translate(-189.88 -122.163)"/><path d="M481.935,677.515c-1.112-.555-11.839-6.5-12.822-7.094l-3.985-19.408L454.54,618.282,452.4,630.59l-30.942-41.242-1.667,18.762-28.976-40.986-.213,10.386-32.523-24.489-.386,13.8-39.745-23.8,4.958,15.471L290.77,545.884l6.753,8.12H242.9l11.155,6.154,23.249,12.864H266.239L302.1,590.587H285.9l50.516,23.378H318.635L377.912,641.7l-16.284,2.992,30,10.9-7.607,5.086,48.336,7.009-6.625,5.427,26.584,1.582c4.017,2.863,17.949,11.2,20.214,12.393.6.343,21.625,10.258,32.1,13.719,2.607.855,9.4,2.906,9.4,2.906l1.624-5.812,1.838-6.539S491.251,682.259,481.935,677.515Z" transform="translate(-189.88 -122.163)"/><path d="M444.727,938a161.151,161.151,0,0,1-1.5-64.06c6.219-33.777,21.907-52.835,38.514-73.012,10.692-12.989,21.748-26.421,32.466-45.647,6.131-11,36.4-69.546,30.029-142.02-3.369-38.328-16.227-75.037-38.222-109.106l17.955-11.59c23.9,37.02,37.879,77,41.552,118.826,6.744,76.723-23.284,137.5-32.65,154.3-11.657,20.91-23.86,35.74-34.632,48.822-16.077,19.535-28.777,34.965-33.994,63.3a139.951,139.951,0,0,0,1.348,55.6Z" transform="translate(-189.88 -122.163)"/><path d="M799.733,443.1l-37.295,11.176-15.024,4.5,4.137-9.717-27.167,21.3.308-16.242-31.24,34.212-4.331-13.113L665,508.012l-3.185-9.887L645.819,545.7l-6.982-17.494-17.8,48.389-5.58-11.177-.747,34.393,1.754,19.735c-.77.855-9.34,9.625-10.245,10.476-7.563,7.219-30.087,23.471-30.087,23.471l3.638,5.737,3.224,5.1s5.921-3.916,8.172-5.482C600.2,652.53,617.5,637,617.972,636.5c1.827-1.8,12.78-13.779,15.807-17.675l25.01-9.146-7.9-3.3,44.29-20.59-8.747-2.688,25.61-19.051-16.456,1.808,48.82-43.585-17.031,5.1,41.679-36.895-15.515,4.65,29.305-27.119-10.6,3.177,18.578-19Z" transform="translate(-189.88 -122.163)"/></svg>